<svg xmlns="http://www.w3.org/2000/svg" xmlns:xlink="http://www.w3.org/1999/xlink" viewBox="0 0 40 40" version="1.1">
<g id="surface1">
<path style=" fill:#98CCFD;" d="M 3 37.5 C 2.171875 37.5 1.5 36.828125 1.5 36 L 1.5 7.808594 L 38.5 7.808594 L 38.5 36 C 38.5 36.828125 37.828125 37.5 37 37.5 Z "></path>
<path style=" fill:#4788C7;" d="M 38 8.308594 L 38 36 C 38 36.550781 37.550781 37 37 37 L 3 37 C 2.449219 37 2 36.550781 2 36 L 2 8.308594 L 38 8.308594 M 39 7.308594 L 1 7.308594 L 1 36 C 1 37.105469 1.894531 38 3 38 L 37 38 C 38.105469 38 39 37.105469 39 36 Z "></path>
<path style=" fill:#4788C7;" d="M 37 3 L 3 3 C 1.894531 3 1 3.894531 1 5 L 1 10 L 39 10 L 39 5 C 39 3.894531 38.105469 3 37 3 Z "></path>
<path style=" fill:#98CCFD;" d="M 2 10 L 38 10 L 38 16 L 2 16 Z "></path>
<path style=" fill:#DFF0FE;" d="M 38 10 L 14 10 L 10 4 L 37 4 C 37.550781 4 38 4.449219 38 5 Z "></path>
<path style=" fill:#FFFFFF;" d="M 26 16 L 30 16 L 34 10 L 30 10 Z "></path>
<path style=" fill:#FFFFFF;" d="M 18 16 L 22 16 L 26 10 L 22 10 Z "></path>
<path style=" fill:#FFFFFF;" d="M 10 16 L 14 16 L 18 10 L 14 10 Z "></path>
<path style=" fill:#FFFFFF;" d="M 2 16 L 6 16 L 10 10 L 6 10 Z "></path>
<path style=" fill:#FFFFFF;" d="M 34 16 L 38 16 L 38 10 Z "></path>
<path style=" fill:#4788C7;" d="M 22 10 L 18 10 L 14 4 L 18 4 Z "></path>
<path style=" fill:#4788C7;" d="M 30 10 L 26 10 L 22 4 L 26 4 Z "></path>
<path style=" fill:#4788C7;" d="M 38 10 L 34 10 L 30 4 L 34 4 Z "></path>
<path style=" fill:#DFF0FE;" d="M 7 6.480469 C 6.988281 5.652344 6.308594 4.988281 5.480469 5 C 4.652344 5.011719 3.988281 5.691406 4 6.519531 C 4.011719 7.347656 4.691406 8.011719 5.519531 8 C 6.347656 7.988281 7.011719 7.308594 7 6.480469 Z "></path>
</g>
</svg>
